# xmcd
#
# Track frame offsets:
#	150
#	17394
#	32069
#	48020
#	61607
#	73306
#	86268
#	101649
#	119759
#	135575
#
# Disc length: 1954 seconds
#
# Revision: 1
# Processed by: cddbd v1.5.2PL0 Copyright (c) Steve Scherf et al.
# Submitted via: audiograbber 1.83.01
#
DISCID=7b07a00a
DTITLE=Butch Ryan and Groovy Cool - Wishing On The Stars
DYEAR=2004
DGENRE=Country Rock
TTITLE0=Wishing On The Stars
TTITLE1=April's Lips
TTITLE2=Wake Me Up Before You Leave
TTITLE3=Mona Lisa Marie
TTITLE4=Some Kind Of Boyfriend
TTITLE5=None Of The Above
TTITLE6=Worn
TTITLE7=All The Way Down
TTITLE8=She Said
TTITLE9=Little Firecracker
EXTD=
EXTT0=
EXTT1=
EXTT2=
EXTT3=
EXTT4=
EXTT5=
EXTT6=
EXTT7=
EXTT8=
EXTT9=
PLAYORDER=
